<?xml version="1.0" encoding="UTF-8"?>
<svg id="Ebene_2" data-name="Ebene 2" xmlns="http://www.w3.org/2000/svg" viewBox="0 0 675.3 125.73">
  <defs>
    <style>
      .cls-1 {
        fill: #f07ddc;
      }

      .cls-2 {
        letter-spacing: -.03em;
      }

      .cls-3, .cls-4 {
        fill: #1c1d1d;
      }

      .cls-5 {
        letter-spacing: .01em;
      }

      .cls-4 {
        font-family: MenckenStdHead-ExtraBold, 'Mencken Std Head';
        font-size: 72px;
        font-weight: 700;
      }

      .cls-6 {
        letter-spacing: 0em;
      }
    </style>
  </defs>
  <g id="Logo_1" data-name="Logo 1">
    <g>
      <text class="cls-4" transform="translate(159.14 85.87)"><tspan x="0" y="0">P</tspan><tspan class="cls-2" x="46.8" y="0">r</tspan><tspan x="80.28" y="0">ais</tspan><tspan class="cls-5" x="181.51" y="0">e</tspan><tspan x="223.41" y="0">Conn</tspan><tspan class="cls-6" x="410.68" y="0">e</tspan><tspan x="452.01" y="0">ct</tspan></text>
      <g>
        <g>
          <path class="cls-1" d="M62.65,125.65c-.6-.27-1.29-.98-1.45-1.59-.08-.3-.57-1.97-1.09-3.69-.98-3.2-2.22-8.75-2.52-11.49-.08-.82-.27-2.46-.44-3.61-.3-2.46-.41-12.2-.14-15.4.19-2.22.22-2.46.52-3.69.08-.38.25-1.29.33-2.05.16-1.64.38-2.82.6-3.56.11-.3.22-.66.25-.82.05-.14.14-.52.22-.82s.25-.96.41-1.42c.14-.49.22-.9.19-.9-.08,0,1.2-3.8,2.43-7.11,1.67-4.6,7.85-15.43,9.99-17.51.08-.08.88-1.09,1.78-2.3,1.81-2.38,9.11-9.93,10.4-10.72.47-.27.98-.71,1.15-.98.19-.25.82-.74,1.37-1.07.57-.36,1.2-.79,1.42-1.01.22-.19.71-.57,1.09-.82s.82-.6.93-.79.38-.36.6-.36c.19,0,.55-.16.74-.36.49-.47,3.88-2.46,5.5-3.23.71-.36,1.29-.74,1.29-.85s.19-.22.41-.22c.25,0,1.29-.44,2.33-.96,1.04-.52,2.35-1.12,2.93-1.34,4.71-1.75,7.39-2.6,7.96-2.49.68.11,1.42.85,2.19,2.13.25.41.52.74.63.74s.33.38.52.82c.19.47.44.82.55.82.08,0,.47.63.82,1.37.36.77.74,1.37.88,1.37.11,0,.22.25.22.55s.14.55.27.55c.16,0,.27.25.27.55s.14.55.27.55c.16,0,.27.25.27.55s.14.55.27.55c.16,0,.27.25.27.55s.08.55.22.55c.11,0,.33.41.49.9.19.47.55,1.5.85,2.24.9,2.33.68,2.6-2.79,3.64-1.67.47-3.5,1.07-4.1,1.31-5.39,2.16-6.43,2.63-6.43,2.9,0,.11-.25.22-.55.22s-.55.14-.55.27c0,.16-.25.27-.55.27s-.55.14-.55.3c0,.14-.36.41-.82.55-.44.16-.82.38-.82.47,0,.11-.57.49-1.29.88-.74.36-1.42.82-1.53,1.01s-.6.55-1.09.79-.93.55-1.01.63c-.08.11-.68.6-1.37,1.12-2.11,1.59-7.5,7.22-9.63,10.04-2.19,2.9-4.71,7-5.77,9.38-.38.82-.96,2.13-1.29,2.87-.57,1.26-1.56,4.1-1.78,5.06-.05.22-.27.96-.52,1.64-.22.68-.47,1.56-.55,2-.11.41-.22,1.04-.3,1.42-.08.38-.19.98-.27,1.37s-.22,1.01-.3,1.45c-.38,1.83-.71,5.44-.74,8.54-.08,7.52,1.26,14.12,4.68,22.93.82,2.11.55,2.6-1.64,3.15-2.68.68-6.81,1.56-8.07,1.7-.66.08-1.67.19-2.3.27-2.24.27-5.85.38-6.26.22h0Z"/>
          <path class="cls-3" d="M97.78,113.48c-.16-.19-.68-1.53-1.15-2.95-1.92-5.69-2.33-9.08-1.86-15.18.27-3.28.3-3.72.52-4.24.11-.22.25-.74.33-1.15.36-1.86.44-2.33.68-3.09.11-.44.49-1.5.82-2.33s.79-2,1.01-2.6c1.12-3.09,6.24-10.23,9.03-12.64.57-.49,1.7-1.45,2.49-2.13s1.61-1.23,1.83-1.23.41-.08.41-.22c0-.11.57-.49,1.31-.88.71-.36,1.34-.74,1.42-.85.71-.93,8.67-3.91,9.71-3.64.63.16.68.3.71,1.72.05,5.01-.19,8.78-.71,11.19-.08.33-.19.88-.27,1.2-.05.33-.19,1.09-.3,1.7-.08.6-.33,1.59-.52,2.19-.36,1.07-.9,3.06-.96,3.5-.03.11-.3.85-.6,1.64s-.74,1.94-.96,2.54c-.77,2.08-4.24,8.75-5.72,10.97-2.93,4.43-4.98,6.92-8.73,10.61-5.03,4.98-7.77,6.84-8.51,5.85h0Z"/>
        </g>
        <g>
          <path class="cls-1" d="M33.59,47.47c-.05-.05-1.09-.14-2.27-.16-2.54-.03-10.75-1.5-14.91-2.65-1.59-.44-4.1-1.26-5.61-1.83-1.5-.57-3.2-1.2-3.8-1.42-1.75-.63-2.57-1.15-2.76-1.72-.19-.57,3.28-7.8,4.81-10.04.44-.63.79-1.26.79-1.42s.11-.3.25-.3.38-.36.57-.82c.19-.44.44-.82.55-.82s.33-.3.49-.66c.49-1.12,1.48-2.08,2.13-2.08.33,0,1.81.44,3.28.96,4.76,1.64,9.41,2.74,14.47,3.34,2.11.25,9.93.25,11.9,0,3.36-.44,6.1-.9,6.84-1.18.22-.08.79-.22,1.23-.3.47-.08,1.04-.25,1.31-.38.25-.14.47-.19.47-.11s.38-.03.82-.27c.47-.25.82-.36.82-.27s.25.03.57-.14c.3-.16.77-.36,1.01-.41,2.6-.57,10.29-4.68,13.95-7.41,4.27-3.2,8.56-7.17,10.29-9.55,1.29-1.75,3.36-3.69,3.99-3.69.3,0,2.02.74,3.83,1.64s3.47,1.64,3.69,1.64.41.11.41.22.6.52,1.37.9c.74.36,1.37.74,1.37.82,0,.11.36.33.82.52s.82.44.82.55.38.36.82.55c1.18.49,2.19,1.34,2.46,2.08.19.47.08.93-.44,1.89-.38.68-.79,1.23-.93,1.23-.11,0-.66.68-1.23,1.5-.55.82-1.07,1.5-1.18,1.5s-.49.47-.88,1.01c-.77,1.15-7.55,8.02-9.19,9.3-.57.47-1.56,1.29-2.13,1.83-2.87,2.6-13.6,8.86-17.81,10.4-.6.19-1.78.66-2.6.98-1.61.63-3.88,1.34-5.66,1.75-.27.05-1.23.36-2.13.66-1.64.57-2.11.68-5.33,1.18-.98.14-2.19.38-2.65.55-.49.16-1.72.33-2.74.41-2.93.16-11.76.36-11.9.25h0Z"/>
          <path class="cls-3" d="M35.15,9.96c-2.85-.33-4.76-.77-4.9-1.09-.08-.25.05-.38.38-.38.27,0,.6-.14.68-.27.25-.38,4.35-2.43,7.25-3.61C45.58,1.72,53.76-.03,60.13,0l2.65.03-1.94,1.83c-2.13,2.02-4.79,3.47-9,4.98-1.34.49-2.68.98-2.93,1.12-.79.41-4.08,1.09-7.88,1.61-3.61.52-4.21.57-5.88.38Z"/>
        </g>
        <g>
          <path class="cls-3" d="M28.42,115.42c-4.35-2.87-6.81-4.87-10.4-8.43-3.53-3.56-5.64-6.13-8.26-10.18-1.45-2.22-4.3-7.52-4.3-8.02,0-.57,5.2,1.18,6.89,2.35.38.27.9.49,1.15.49s.44.08.44.22c0,.11,1.01.96,2.27,1.89,2.16,1.61,6.05,5.23,7.17,6.65.3.38.9,1.18,1.34,1.78s.9,1.15,1.04,1.18c.11.05.22.22.22.36s.41.85.9,1.56c.49.71,1.12,1.78,1.42,2.38.3.6.63,1.15.71,1.23.11.08.6,1.42,1.12,3.01.98,2.93,1.45,5.2,1.04,5.2-.11,0-1.37-.77-2.76-1.67h0ZM9.85,93.75c0-.05-.47-.52-1.01-1.04l-1.04-.93.93,1.04c.9.93,1.12,1.15,1.12.93Z"/>
          <path class="cls-1" d="M43.61,96.49c-.33-.47-.82-1.31-1.09-1.83-.3-.52-.6-1.01-.68-1.09s-.33-.44-.52-.82-.57-.82-.82-1.01c-.27-.19-.63-.71-.82-1.18-.19-.44-.44-.82-.57-.82s-.49-.41-.79-.88c-.77-1.29-5.23-5.72-8.07-8.04-1.34-1.12-2.71-2.22-2.98-2.49-1.5-1.31-8.62-5.31-11.16-6.26-2.63-.98-7.06-2.49-7.06-2.41,0,.03-.41-.05-.88-.19-1.09-.33-1.31-.38-5.28-1.09C-.03,67.87,0,67.93,0,62.38,0,59.75.05,57.29.11,56.9c.22-1.18.63-4.3.79-6.07.08-.74,1.26-1.92,1.78-1.75.25.08.85.22,1.29.27,1.64.22,3.83.63,3.83.74,0,.03.25.08.55.11,1.04.14,2.19.36,2.6.52.22.08.71.22,1.09.27,1.5.3,4.57,1.18,5.14,1.5.33.16.6.25.6.16s.36.03.82.27c.44.22.88.41.96.38.36-.08,3.91,1.42,7.96,3.34,2.3,1.09,9.9,5.55,10.37,6.1.16.16,1.2,1.01,2.35,1.86,1.15.88,2.68,2.13,3.42,2.82s1.92,1.7,2.63,2.27c2.05,1.61,2.08,1.86.93,6.54-1.01,4.13-1.15,4.68-1.4,6.37-.08.55-.22,1.29-.3,1.64-.08.38-.19,1.12-.25,1.64s-.19,1.59-.27,2.33c-.33,2.63-.41,3.86-.44,6.51-.03,1.45-.14,2.65-.22,2.65s-.44-.41-.74-.9h0Z"/>
        </g>
      </g>
    </g>
  </g>
</svg>